<svg width="20" height="20" viewBox="0 0 20 20" fill="none" xmlns="http://www.w3.org/2000/svg">
<path fill-rule="evenodd" clip-rule="evenodd" d="M10 20C4.47716 20 0 15.5228 0 10C0 4.47715 4.47716 0 10 0C15.5229 0 20 4.47715 20 10C20 15.5228 15.5229 20 10 20ZM10 18.8C14.8601 18.8 18.8 14.8601 18.8 10C18.8 5.13993 14.8601 1.20004 10 1.20004C5.13993 1.20004 1.20003 5.13993 1.20003 10C1.20003 14.8601 5.13993 18.8 10 18.8ZM10.9531 14.5L11.9985 13.4375L8.68024 9.99997L11.9985 6.56247L10.9531 5.49997L7.26438 9.30382C6.88824 9.69171 6.88824 10.3082 7.26438 10.6961L10.9531 14.5Z" fill="black" fill-opacity="0.9"/>
</svg>
